<svg width="12" height="12" viewBox="0 0 12 12" fill="none" xmlns="http://www.w3.org/2000/svg">
<path d="M8.62501 4.19859V3.9375C8.62501 2.76188 6.85173 1.875 4.50001 1.875C2.14829 1.875 0.375008 2.76188 0.375008 3.9375V5.8125C0.375008 6.79172 1.60548 7.56984 3.37501 7.80281V8.0625C3.37501 9.23812 5.14829 10.125 7.50001 10.125C9.85173 10.125 11.625 9.23812 11.625 8.0625V6.1875C11.625 5.21719 10.4334 4.43812 8.62501 4.19859ZM2.62501 6.88453C1.70673 6.62812 1.12501 6.20578 1.12501 5.8125V5.15297C1.50751 5.42391 2.01985 5.64234 2.62501 5.78906V6.88453ZM6.37501 5.78906C6.98016 5.64234 7.49251 5.42391 7.87501 5.15297V5.8125C7.87501 6.20578 7.29329 6.62812 6.37501 6.88453V5.78906ZM5.62501 9.13453C4.70673 8.87812 4.12501 8.45578 4.12501 8.0625V7.86703C4.24829 7.87172 4.37298 7.875 4.50001 7.875C4.68188 7.875 4.85954 7.86891 5.03391 7.85859C5.22763 7.92794 5.42495 7.98678 5.62501 8.03484V9.13453ZM5.62501 7.04297C5.25254 7.09799 4.87652 7.12541 4.50001 7.125C4.1235 7.12541 3.74747 7.09799 3.37501 7.04297V5.92781C3.74803 5.97642 4.12383 6.00053 4.50001 6C4.87618 6.00053 5.25199 5.97642 5.62501 5.92781V7.04297ZM8.62501 9.29297C7.87899 9.40234 7.12102 9.40234 6.37501 9.29297V8.175C6.74791 8.22513 7.12375 8.25018 7.50001 8.25C7.87618 8.25053 8.25199 8.22642 8.62501 8.17781V9.29297ZM10.875 8.0625C10.875 8.45578 10.2933 8.87812 9.37501 9.13453V8.03906C9.98016 7.89234 10.4925 7.67391 10.875 7.40297V8.0625Z" fill="#667085"/>
</svg>
