<svg width="12" height="12" viewBox="0 0 12 12" fill="none" xmlns="http://www.w3.org/2000/svg">
<path d="M9.73031 2.9925C8.75859 2.50688 7.46859 2.25 6 2.25C4.53141 2.25 3.24141 2.50688 2.26969 2.9925C1.29797 3.47812 0.75 4.16156 0.75 4.875V7.125C0.75 7.83844 1.30406 8.52422 2.26969 9.0075C3.23531 9.49078 4.53141 9.75 6 9.75C7.46859 9.75 8.75859 9.49313 9.73031 9.0075C10.702 8.52188 11.25 7.83844 11.25 7.125V4.875C11.25 4.16156 10.6959 3.47578 9.73031 2.9925ZM5.625 7.4925V8.9925C4.73438 8.96344 3.98438 8.83219 3.375 8.64141V7.17422C4.10959 7.36993 4.86496 7.4771 5.625 7.49344V7.4925ZM6.375 7.4925C7.13504 7.47616 7.89041 7.369 8.625 7.17328V8.64094C8.01562 8.83172 7.26562 8.96297 6.375 8.99203V7.4925ZM1.5 7.125V6.25922C1.73599 6.45511 1.99436 6.62237 2.26969 6.7575C2.38359 6.81422 2.50406 6.86766 2.625 6.91828V8.34375C1.88297 7.97625 1.5 7.51359 1.5 7.125ZM9.375 8.34375V6.91828C9.49734 6.86766 9.61641 6.81422 9.73031 6.7575C10.0056 6.62237 10.264 6.45511 10.5 6.25922V7.125C10.5 7.51359 10.117 7.97625 9.375 8.34375Z" fill="#667085"/>
</svg>
