<svg width="36" height="37" viewBox="0 0 36 37" fill="none" xmlns="http://www.w3.org/2000/svg">
<rect y="0.200012" width="36" height="36" rx="8" fill="white"/>
<path d="M25.5 17.2274V24.45C25.5 24.7815 25.3683 25.0995 25.1339 25.3339C24.8995 25.5683 24.5815 25.7 24.25 25.7H21.125C20.7935 25.7 20.4755 25.5683 20.2411 25.3339C20.0067 25.0995 19.875 24.7815 19.875 24.45V21.325C19.875 21.1593 19.8092 21.0003 19.6919 20.8831C19.5747 20.7659 19.4158 20.7 19.25 20.7H16.75C16.5842 20.7 16.4253 20.7659 16.3081 20.8831C16.1908 21.0003 16.125 21.1593 16.125 21.325V24.45C16.125 24.7815 15.9933 25.0995 15.7589 25.3339C15.5245 25.5683 15.2065 25.7 14.875 25.7H11.75C11.4185 25.7 11.1005 25.5683 10.8661 25.3339C10.6317 25.0995 10.5 24.7815 10.5 24.45V17.2274C10.5 17.0544 10.5359 16.8832 10.6054 16.7248C10.6749 16.5664 10.7766 16.4242 10.9039 16.3071L17.1539 10.4102L17.1625 10.4016C17.3926 10.1923 17.6925 10.0764 18.0035 10.0764C18.3146 10.0764 18.6144 10.1923 18.8445 10.4016C18.8472 10.4046 18.8501 10.4075 18.8531 10.4102L25.1031 16.3071C25.2292 16.4248 25.3295 16.5673 25.3978 16.7257C25.4661 16.8841 25.5009 17.0549 25.5 17.2274Z" fill="#115E56"/>
</svg>
