<svg width="118" height="10" viewBox="0 0 118 10" fill="none" xmlns="http://www.w3.org/2000/svg">
<path d="M1.98153 9H0.294034L3.36648 0.272727H5.31818L8.39489 9H6.70739L4.37642 2.0625H4.30824L1.98153 9ZM2.03693 5.57812H6.6392V6.84801H2.03693V5.57812ZM10.2159 0.272727L12.4872 7.14205H12.5767L14.8438 0.272727H16.5824L13.5057 9H11.554L8.48153 0.272727H10.2159ZM23.6097 3.05966C23.5387 2.82955 23.4407 2.62358 23.3157 2.44176C23.1935 2.2571 23.0458 2.09943 22.8725 1.96875C22.7021 1.83807 22.506 1.74006 22.2844 1.67472C22.0629 1.60653 21.8214 1.57244 21.56 1.57244C21.0913 1.57244 20.6737 1.69034 20.3072 1.92614C19.9407 2.16193 19.6523 2.50852 19.4421 2.96591C19.2347 3.42045 19.131 3.97443 19.131 4.62784C19.131 5.28693 19.2347 5.84517 19.4421 6.30256C19.6495 6.75994 19.9379 7.10795 20.3072 7.34659C20.6765 7.58239 21.1055 7.70028 21.5941 7.70028C22.0373 7.70028 22.4208 7.61506 22.7447 7.4446C23.0714 7.27415 23.3228 7.03267 23.4989 6.72017C23.6751 6.40483 23.7631 6.03551 23.7631 5.61222L24.1211 5.66761H21.7518V4.43182H25.293V5.48011C25.293 6.22727 25.1339 6.87358 24.8157 7.41903C24.4975 7.96449 24.06 8.38494 23.5032 8.6804C22.9464 8.97301 22.3072 9.11932 21.5856 9.11932C20.7816 9.11932 20.0756 8.93892 19.4677 8.57812C18.8626 8.21449 18.3896 7.69886 18.0487 7.03125C17.7106 6.3608 17.5415 5.56534 17.5415 4.64489C17.5415 3.94034 17.641 3.31108 17.8398 2.7571C18.0415 2.20312 18.3228 1.73295 18.6836 1.34659C19.0444 0.957386 19.4677 0.661932 19.9535 0.460227C20.4393 0.255682 20.9677 0.153409 21.5387 0.153409C22.0217 0.153409 22.4719 0.224432 22.8896 0.366477C23.3072 0.505682 23.6779 0.704545 24.0018 0.963068C24.3285 1.22159 24.5969 1.52841 24.8072 1.88352C25.0174 2.23864 25.1552 2.63068 25.2205 3.05966H23.6097ZM38.5966 4.63636C38.5966 5.5767 38.4205 6.3821 38.0682 7.05256C37.7188 7.72017 37.2415 8.23153 36.6364 8.58665C36.0341 8.94176 35.3509 9.11932 34.5866 9.11932C33.8224 9.11932 33.1378 8.94176 32.5327 8.58665C31.9304 8.22869 31.4531 7.71591 31.1009 7.0483C30.7514 6.37784 30.5767 5.57386 30.5767 4.63636C30.5767 3.69602 30.7514 2.89205 31.1009 2.22443C31.4531 1.55398 31.9304 1.04119 32.5327 0.686079C33.1378 0.330966 33.8224 0.153409 34.5866 0.153409C35.3509 0.153409 36.0341 0.330966 36.6364 0.686079C37.2415 1.04119 37.7188 1.55398 38.0682 2.22443C38.4205 2.89205 38.5966 3.69602 38.5966 4.63636ZM37.0071 4.63636C37.0071 3.97443 36.9034 3.41619 36.696 2.96165C36.4915 2.50426 36.2074 2.15909 35.8438 1.92614C35.4801 1.69034 35.0611 1.57244 34.5866 1.57244C34.1122 1.57244 33.6932 1.69034 33.3295 1.92614C32.9659 2.15909 32.6804 2.50426 32.473 2.96165C32.2685 3.41619 32.1662 3.97443 32.1662 4.63636C32.1662 5.2983 32.2685 5.85795 32.473 6.31534C32.6804 6.76989 32.9659 7.11506 33.3295 7.35085C33.6932 7.58381 34.1122 7.70028 34.5866 7.70028C35.0611 7.70028 35.4801 7.58381 35.8438 7.35085C36.2074 7.11506 36.4915 6.76989 36.696 6.31534C36.9034 5.85795 37.0071 5.2983 37.0071 4.63636ZM40.5913 9V0.272727H43.864C44.5344 0.272727 45.0969 0.389204 45.5515 0.622159C46.0089 0.855113 46.354 1.18182 46.587 1.60227C46.8228 2.01989 46.9407 2.5071 46.9407 3.06392C46.9407 3.62358 46.8214 4.10937 46.5827 4.52131C46.3469 4.9304 45.9989 5.24716 45.5387 5.47159C45.0785 5.69318 44.5131 5.80398 43.8427 5.80398H41.5117V4.49148H43.6296C44.0217 4.49148 44.3427 4.4375 44.5927 4.32955C44.8427 4.21875 45.0273 4.05824 45.1467 3.84801C45.2688 3.63494 45.3299 3.37358 45.3299 3.06392C45.3299 2.75426 45.2688 2.49006 45.1467 2.27131C45.0245 2.04972 44.8384 1.8821 44.5884 1.76847C44.3384 1.65199 44.016 1.59375 43.6211 1.59375H42.1722V9H40.5913ZM45.0998 5.04545L47.2603 9H45.4961L43.3739 5.04545H45.0998ZM51.8533 9H48.896V0.272727H51.913C52.7795 0.272727 53.5238 0.447443 54.146 0.796875C54.771 1.14347 55.2511 1.64205 55.5863 2.29261C55.9215 2.94318 56.0891 3.72159 56.0891 4.62784C56.0891 5.53693 55.9201 6.31818 55.582 6.97159C55.2468 7.625 54.7624 8.12642 54.1289 8.47585C53.4982 8.82528 52.7397 9 51.8533 9ZM50.4769 7.6321H51.7766C52.3846 7.6321 52.8917 7.52131 53.2979 7.29972C53.7042 7.07528 54.0096 6.74148 54.2141 6.2983C54.4187 5.85227 54.521 5.29545 54.521 4.62784C54.521 3.96023 54.4187 3.40625 54.2141 2.96591C54.0096 2.52273 53.707 2.19176 53.3065 1.97301C52.9087 1.75142 52.4144 1.64062 51.8235 1.64062H50.4769V7.6321ZM58.0913 9V0.272727H63.7674V1.59801H59.6722V3.96733H63.4734V5.29261H59.6722V7.67472H63.8015V9H58.0913ZM65.8803 9V0.272727H69.1531C69.8235 0.272727 70.386 0.389204 70.8406 0.622159C71.2979 0.855113 71.6431 1.18182 71.8761 1.60227C72.1119 2.01989 72.2298 2.5071 72.2298 3.06392C72.2298 3.62358 72.1104 4.10937 71.8718 4.52131C71.636 4.9304 71.288 5.24716 70.8278 5.47159C70.3675 5.69318 69.8022 5.80398 69.1317 5.80398H66.8008V4.49148H68.9187C69.3107 4.49148 69.6317 4.4375 69.8817 4.32955C70.1317 4.21875 70.3164 4.05824 70.4357 3.84801C70.5579 3.63494 70.619 3.37358 70.619 3.06392C70.619 2.75426 70.5579 2.49006 70.4357 2.27131C70.3136 2.04972 70.1275 1.8821 69.8775 1.76847C69.6275 1.65199 69.305 1.59375 68.9102 1.59375H67.4613V9H65.8803ZM70.3888 5.04545L72.5494 9H70.7852L68.663 5.04545H70.3888ZM78.8292 0.272727L81.1005 7.14205H81.19L83.457 0.272727H85.1957L82.119 9H80.1673L77.0948 0.272727H78.8292ZM86.9464 9H85.2589L88.3313 0.272727H90.283L93.3597 9H91.6722L89.3413 2.0625H89.2731L86.9464 9ZM87.0018 5.57812H91.604V6.84801H87.0018V5.57812ZM95.0092 9V0.272727H96.5902V7.67472H100.434V9H95.0092ZM107.808 0.272727H109.388V5.97443C109.388 6.59943 109.241 7.14915 108.945 7.62358C108.653 8.09801 108.241 8.46875 107.71 8.7358C107.178 9 106.558 9.1321 105.847 9.1321C105.134 9.1321 104.512 9 103.981 8.7358C103.45 8.46875 103.038 8.09801 102.745 7.62358C102.452 7.14915 102.306 6.59943 102.306 5.97443V0.272727H103.887V5.84233C103.887 6.20597 103.967 6.52983 104.126 6.81392C104.288 7.09801 104.515 7.32102 104.808 7.48295C105.1 7.64205 105.447 7.72159 105.847 7.72159C106.248 7.72159 106.594 7.64205 106.887 7.48295C107.183 7.32102 107.41 7.09801 107.569 6.81392C107.728 6.52983 107.808 6.20597 107.808 5.84233V0.272727ZM111.607 9V0.272727H117.283V1.59801H113.188V3.96733H116.989V5.29261H113.188V7.67472H117.317V9H111.607Z" fill="#667085"/>
</svg>
