<svg width="12" height="12" viewBox="0 0 12 12" fill="none" xmlns="http://www.w3.org/2000/svg">
<path d="M11.4052 6.375L6.75 1.71985C6.68061 1.6499 6.59801 1.59444 6.507 1.5567C6.41598 1.51896 6.31838 1.49969 6.21985 1.5H1.875C1.77555 1.5 1.68016 1.53951 1.60984 1.60984C1.53951 1.68016 1.5 1.77555 1.5 1.875V6.21985C1.49969 6.31838 1.51896 6.41598 1.5567 6.507C1.59444 6.59801 1.6499 6.68061 1.71985 6.75L6.375 11.4052C6.44465 11.4748 6.52734 11.5301 6.61834 11.5678C6.70935 11.6055 6.80689 11.6249 6.90539 11.6249C7.0039 11.6249 7.10144 11.6055 7.19245 11.5678C7.28345 11.5301 7.36614 11.4748 7.43579 11.4052L11.4052 7.43579C11.4748 7.36614 11.5301 7.28345 11.5678 7.19245C11.6055 7.10144 11.6249 7.0039 11.6249 6.90539C11.6249 6.80689 11.6055 6.70935 11.5678 6.61834C11.5301 6.52734 11.4748 6.44465 11.4052 6.375ZM3.9375 4.5C3.82625 4.5 3.7175 4.46701 3.625 4.40521C3.53249 4.3434 3.4604 4.25555 3.41782 4.15276C3.37525 4.04998 3.36411 3.93688 3.38581 3.82777C3.40752 3.71865 3.46109 3.61842 3.53976 3.53976C3.61842 3.46109 3.71865 3.40752 3.82777 3.38581C3.93688 3.36411 4.04998 3.37525 4.15276 3.41782C4.25555 3.4604 4.3434 3.53249 4.40521 3.625C4.46701 3.7175 4.5 3.82625 4.5 3.9375C4.5 4.08669 4.44074 4.22976 4.33525 4.33525C4.22976 4.44074 4.08669 4.5 3.9375 4.5Z" fill="#667085"/>
</svg>
